<?xml version="1.0" standalone="no"?>
<!DOCTYPE svg PUBLIC "-//W3C//DTD SVG 20010904//EN"
 "http://www.w3.org/TR/2001/REC-SVG-20010904/DTD/svg10.dtd">
<svg version="1.0" xmlns="http://www.w3.org/2000/svg"
 width="512.000000pt" height="512.000000pt" viewBox="0 0 512.000000 512.000000"
 preserveAspectRatio="xMidYMid meet">
<metadata>
Created by potrace 1.14, written by Peter Selinger 2001-2017
</metadata>
<g transform="translate(0.000000,512.000000) scale(0.100000,-0.100000)"
fill="#000000" stroke="none">
<path d="M0 2560 l0 -2560 2560 0 2560 0 0 2560 0 2560 -2560 0 -2560 0 0
-2560z m3052 1898 c76 -35 151 -107 185 -177 l28 -56 0 -1165 0 -1165 -25 -50
c-31 -64 -111 -144 -175 -175 l-50 -25 -455 0 -455 0 -57 28 c-69 34 -131 94
-166 162 l-27 50 -3 1162 c-2 1150 -2 1162 18 1216 24 65 85 137 144 172 88
52 117 54 566 52 l415 -2 57 -27z m408 -3205 l0 -124 26 20 c59 47 160 35 194
-22 17 -27 20 -51 20 -154 l0 -123 26 -6 c18 -5 24 -12 22 -27 -3 -20 -8 -21
-93 -18 -49 1 -94 6 -99 11 -4 5 6 16 23 24 l31 17 0 119 c0 139 -7 153 -73
148 -61 -5 -81 -38 -86 -144 -4 -106 2 -130 34 -138 14 -4 25 -14 25 -22 0
-13 -7 -15 -31 -10 -17 3 -60 6 -95 6 -48 0 -64 3 -64 14 0 8 11 17 25 20 l25
6 0 235 0 235 -24 6 c-49 12 -38 32 27 46 34 8 68 12 75 10 9 -3 12 -38 12
-129z m-2140 93 c30 -8 63 -18 73 -21 12 -5 17 -2 17 9 0 9 7 16 15 16 13 0
15 -14 13 -82 -2 -48 -8 -83 -14 -85 -6 -2 -19 17 -28 41 -31 82 -106 121
-187 97 -94 -28 -134 -102 -134 -246 0 -76 4 -98 25 -140 33 -65 77 -95 142
-95 71 0 105 21 119 73 13 50 2 90 -26 95 -39 6 -49 12 -38 23 11 11 197 20
221 11 20 -7 14 -20 -15 -34 -26 -12 -28 -19 -31 -75 -3 -60 -4 -63 -35 -72
-18 -5 -59 -21 -92 -35 -185 -79 -369 23 -383 213 -10 151 67 272 197 307 62
17 96 17 161 0z m1462 -134 c19 -16 15 -32 -8 -32 -8 0 -31 -7 -51 -15 l-36
-15 22 -24 c33 -35 44 -86 29 -131 -19 -55 -53 -76 -138 -85 -67 -7 -102 -22
-87 -36 3 -3 49 -9 101 -13 108 -9 140 -24 163 -78 26 -64 -3 -134 -70 -170
-43 -23 -161 -23 -204 0 -66 35 -91 97 -57 145 11 15 25 22 50 22 37 0 43 -10
19 -30 -24 -20 -19 -77 8 -94 32 -22 97 -28 137 -13 61 21 79 105 27 127 -12
5 -62 14 -112 19 -73 7 -92 13 -107 31 -25 31 -22 67 8 95 23 21 24 26 10 31
-25 9 -46 57 -46 103 0 76 73 131 175 131 28 0 55 9 85 29 46 29 52 29 82 3z
m-990 -42 c75 -21 138 -102 138 -177 -1 -73 -58 -158 -123 -182 -83 -32 -191
2 -231 72 -33 57 -39 96 -25 152 26 104 135 164 241 135z m288 -16 l10 -25 32
23 c25 17 46 23 91 23 54 0 61 -3 88 -33 28 -32 29 -35 29 -146 0 -130 3 -144
36 -157 13 -4 24 -15 24 -23 0 -12 -17 -14 -95 -12 -98 2 -117 11 -71 34 l26
13 0 124 c0 117 -1 125 -22 139 -32 23 -62 20 -97 -10 l-31 -26 0 -114 c0
-113 0 -115 25 -124 53 -20 26 -31 -72 -28 -101 3 -129 17 -73 36 l31 11 -3
128 c-3 124 -4 127 -26 133 -38 9 -30 24 23 42 66 22 64 22 75 -8z m1175 2
c28 -18 33 -47 11 -65 -18 -15 -41 -5 -61 25 -31 47 -96 27 -126 -39 -33 -75
-20 -179 29 -218 35 -27 102 -22 137 11 22 21 25 21 31 6 5 -12 -2 -26 -19
-44 -22 -21 -38 -27 -90 -30 -123 -8 -192 57 -192 179 0 55 4 72 27 105 58 84
180 118 253 70z m786 -1 c42 -22 49 -49 49 -186 l0 -121 29 7 c38 8 50 -11 22
-38 -28 -28 -84 -28 -112 0 l-21 21 -36 -21 c-49 -29 -124 -29 -153 0 -55 55
-15 119 113 180 70 34 78 40 78 66 0 41 -16 64 -48 72 -38 8 -82 -10 -82 -33
0 -38 -46 -56 -70 -27 -19 23 2 63 43 80 44 19 150 19 188 0z"/>
<path d="M2186 4285 c-65 -33 24 -49 242 -43 100 2 124 0 132 -12 14 -22 12
-97 -2 -107 -7 -4 -67 -8 -133 -8 -114 -1 -263 -11 -312 -21 -24 -5 -32 -37
-13 -49 6 -4 62 -1 126 5 63 7 268 13 456 14 243 1 342 4 345 12 7 21 -30 26
-216 32 l-183 5 6 51 c9 83 19 87 213 85 90 -1 166 1 170 5 4 3 -1 14 -10 24
-16 15 -52 17 -409 17 -241 0 -399 -4 -412 -10z"/>
<path d="M2432 3980 c-90 -5 -99 -11 -128 -76 -18 -44 -17 -236 2 -311 26
-102 52 -143 101 -165 24 -11 46 -25 49 -32 7 -19 -40 -183 -75 -264 -32 -72
-34 -116 -7 -106 22 9 66 119 97 243 18 72 35 121 46 129 24 17 128 16 146 -2
8 -8 22 -54 31 -103 18 -92 88 -258 112 -267 23 -9 17 69 -10 122 -30 60 -80
245 -72 270 4 10 22 26 41 35 46 22 62 49 81 142 9 44 20 98 24 120 13 56 12
156 -1 193 -20 59 -60 73 -216 75 -76 1 -176 0 -221 -3z m359 -93 c3 -27 2
-50 -2 -53 -8 -4 -273 -17 -389 -18 -53 -1 -55 0 -58 28 -3 21 5 37 29 62 l32
33 191 -2 191 -2 6 -48z m2 -134 c18 -62 15 -63 -165 -64 -90 0 -188 -4 -218
-8 -63 -9 -72 -3 -68 48 l3 34 165 3 c91 2 183 8 205 13 58 13 68 10 78 -26z
m0 -158 c-9 -62 -17 -71 -95 -96 -91 -30 -230 -31 -274 -3 -28 19 -68 99 -60
120 6 17 37 19 253 19 l182 0 -6 -40z"/>
<path d="M2216 2856 c-12 -92 37 -166 110 -166 30 0 34 -3 34 -25 0 -15 6 -25
15 -25 8 0 17 11 21 25 5 21 12 25 44 25 27 0 48 8 69 26 30 25 31 29 31 105
0 64 -3 79 -15 79 -11 0 -15 -12 -15 -49 0 -38 -6 -56 -26 -80 -22 -27 -28
-29 -50 -19 -22 10 -24 16 -24 85 0 66 -2 73 -20 73 -18 0 -20 -7 -20 -74 0
-58 -3 -75 -16 -80 -33 -13 -52 -6 -64 24 -7 16 -18 35 -26 41 -8 6 -14 24
-14 39 0 15 -6 33 -14 39 -11 9 -15 2 -20 -43z"/>
<path d="M2610 2848 c0 -77 15 -135 38 -146 9 -5 34 -12 56 -15 23 -4 44 -15
53 -27 16 -23 33 -18 33 11 0 16 7 19 44 19 35 0 49 5 64 25 26 32 44 102 40
150 -5 60 -28 51 -50 -20 -24 -73 -44 -97 -77 -93 -25 3 -26 6 -29 81 -2 67
-5 77 -21 77 -16 0 -20 -12 -26 -85 -6 -79 -8 -85 -29 -85 -38 0 -56 30 -56
93 0 46 -4 58 -20 67 -19 10 -20 8 -20 -52z"/>
<path d="M2479 2606 c-57 -23 -133 -52 -169 -65 -62 -23 -90 -43 -90 -64 0
-20 104 4 212 49 164 67 164 67 314 -5 129 -62 204 -79 204 -47 0 17 -27 46
-42 46 -6 0 -45 15 -87 34 -42 19 -112 48 -157 64 l-80 30 -105 -42z"/>
<path d="M2565 2524 c-14 -14 -15 -30 -9 -104 l6 -87 -79 -7 c-43 -3 -112 -4
-153 0 -81 6 -115 -5 -92 -28 9 -9 57 -14 161 -16 l148 -3 7 -142 c3 -78 3
-163 0 -189 -4 -25 -3 -63 0 -82 6 -30 11 -36 31 -36 l25 0 0 225 0 225 23 4
c12 3 72 7 132 9 109 5 165 17 165 37 0 6 -57 10 -160 10 l-160 0 5 85 c3 67
1 88 -11 100 -19 19 -19 19 -39 -1z"/>
<path d="M2431 2208 c-5 -13 -15 -45 -22 -73 -26 -109 -93 -202 -177 -247 -19
-10 -32 -25 -32 -37 0 -87 181 67 230 196 26 68 39 183 21 183 -6 0 -15 -10
-20 -22z"/>
<path d="M2687 2224 c-13 -13 -7 -64 14 -126 44 -128 94 -203 168 -250 51 -32
66 -35 75 -13 3 10 -8 20 -37 33 -23 11 -52 30 -64 43 -30 33 -88 161 -111
245 -18 65 -30 83 -45 68z"/>
<path d="M2533 1113 c-12 -17 -18 -45 -17 -77 0 -41 5 -53 28 -73 29 -25 57
-24 85 3 20 18 25 113 9 144 -10 19 -23 26 -50 28 -31 3 -40 -1 -55 -25z"/>
<path d="M1710 1140 c-58 -14 -92 -118 -70 -212 16 -66 47 -98 95 -98 55 0 91
41 100 113 16 129 -40 218 -125 197z"/>
<path d="M3951 970 c-55 -36 -76 -71 -61 -100 15 -29 65 -26 95 5 20 19 25 34
25 75 0 27 -3 50 -7 50 -5 0 -28 -13 -52 -30z"/>
</g>
</svg>
